<?xml version="1.0" encoding="utf-8"?>
<!-- Generator: Adobe Illustrator 16.0.0, SVG Export Plug-In . SVG Version: 6.00 Build 0)  -->
<!DOCTYPE svg PUBLIC "-//W3C//DTD SVG 1.1//EN" "http://www.w3.org/Graphics/SVG/1.1/DTD/svg11.dtd">
<svg version="1.1" id="Layer_1" xmlns="http://www.w3.org/2000/svg" xmlns:xlink="http://www.w3.org/1999/xlink" x="0px" y="0px"
	 width="72px" height="72px" viewBox="0 0 72 72" enable-background="new 0 0 72 72" xml:space="preserve">
<g id="_x23_f7931aff">
	<path fill="#1E96DD" d="M33.6,0h5.03c8.511,0.81,16.79,4.42,22.81,10.55c6.19,6.08,9.84,14.46,10.562,23.08v5.03
		c-0.812,8.51-4.42,16.79-10.55,22.811c-5.91,6.021-14,9.59-22.342,10.529H33.19c-9.63-0.891-18.88-5.57-24.99-13.12
		C3.5,53.3,0.87,46.23,0,39.029V33.81C0.85,16.2,16.01,0.97,33.6,0"/>
</g>
<g>
	<path fill="#FFFFFF" d="M24.561,53.18V18.82h11.133c4.219,0,6.969,0.172,8.25,0.516c1.969,0.516,3.617,1.637,4.945,3.363
		s1.992,3.957,1.992,6.691c0,2.109-0.383,3.883-1.148,5.32s-1.738,2.566-2.918,3.387s-2.379,1.363-3.598,1.629
		c-1.656,0.328-4.055,0.492-7.195,0.492h-4.523V53.18H24.561z M31.498,24.633v9.75h3.797c2.734,0,4.563-0.18,5.484-0.539
		s1.645-0.922,2.168-1.688s0.785-1.656,0.785-2.672c0-1.25-0.367-2.281-1.102-3.094s-1.664-1.32-2.789-1.523
		c-0.828-0.156-2.492-0.234-4.992-0.234H31.498z"/>
</g>
</svg>
