<?xml version="1.0" encoding="utf-8"?>
<!-- Generator: Adobe Illustrator 16.0.0, SVG Export Plug-In . SVG Version: 6.00 Build 0)  -->
<!DOCTYPE svg PUBLIC "-//W3C//DTD SVG 1.1//EN" "http://www.w3.org/Graphics/SVG/1.1/DTD/svg11.dtd">
<svg version="1.1" xmlns="http://www.w3.org/2000/svg" xmlns:xlink="http://www.w3.org/1999/xlink" x="0px" y="0px" width="72px"
	 height="72px" viewBox="0 0 72 72" enable-background="new 0 0 72 72" xml:space="preserve">
<g id="Layer_1">
	<g id="_x23_f7931aff">
		<path fill="#D42B18" d="M33.6,0h5.03c8.511,0.81,16.79,4.42,22.81,10.55c6.19,6.08,9.84,14.46,10.562,23.08v5.03
			c-0.812,8.51-4.42,16.79-10.55,22.811c-5.91,6.021-14,9.59-22.342,10.529H33.19c-9.63-0.891-18.88-5.57-24.99-13.12
			C3.5,53.3,0.87,46.23,0,39.029V33.81C0.85,16.2,16.01,0.97,33.6,0"/>
	</g>
</g>
<g id="Layer_2">
	<g>
		<path fill="#FFFFFF" d="M18.99,37.093v6.426c0,1.254,0.077,2.043,0.231,2.367c0.153,0.324,0.427,0.584,0.82,0.777
			c0.393,0.195,1.113,0.291,2.161,0.291v0.633H10.429v-0.633c1.07,0,1.797-0.1,2.179-0.299s0.649-0.459,0.804-0.777
			c0.153-0.318,0.23-1.105,0.23-2.359V28.48c0-1.253-0.077-2.042-0.23-2.367c-0.154-0.324-0.425-0.584-0.813-0.777
			s-1.11-0.291-2.17-0.291v-0.632h10.1c3.327,0,5.714,0.593,7.161,1.777c1.446,1.185,2.17,2.666,2.17,4.443
			c0,1.504-0.467,2.791-1.401,3.862s-2.222,1.8-3.862,2.188C23.49,36.956,21.622,37.093,18.99,37.093z M18.99,25.746v10.015
			c0.376,0.022,0.661,0.034,0.854,0.034c1.39,0,2.461-0.413,3.213-1.239s1.128-2.104,1.128-3.837c0-1.72-0.376-2.979-1.128-3.776
			s-1.874-1.196-3.366-1.196H18.99z"/>
		<path fill="#FFFFFF" d="M45.849,39.69l6.289-15.277h9.434v0.632h-0.752c-0.684,0-1.23,0.12-1.641,0.359
			c-0.285,0.159-0.512,0.427-0.684,0.803c-0.125,0.273-0.188,0.986-0.188,2.137v15.278c0,1.186,0.063,1.926,0.188,2.221
			c0.125,0.297,0.383,0.557,0.77,0.777c0.387,0.223,0.906,0.334,1.555,0.334h0.752v0.633h-12.1v-0.633h0.752
			c0.684,0,1.23-0.119,1.641-0.359c0.285-0.158,0.514-0.432,0.684-0.82c0.125-0.273,0.188-0.99,0.188-2.152V26.446l-8.887,21.141
			h-0.41l-9.022-20.986v16.32c0,1.139,0.028,1.84,0.085,2.102c0.148,0.57,0.47,1.035,0.966,1.393
			c0.495,0.359,1.272,0.539,2.333,0.539v0.633h-7.93v-0.633h0.239c0.513,0.012,0.991-0.07,1.436-0.248
			c0.444-0.176,0.78-0.412,1.008-0.709s0.404-0.711,0.53-1.248c0.022-0.125,0.034-0.705,0.034-1.742V28.344
			c0-1.174-0.063-1.905-0.188-2.196c-0.125-0.29-0.382-0.547-0.769-0.769c-0.388-0.223-0.906-0.334-1.556-0.334H29.87v-0.632h9.467
			L45.849,39.69z"/>
	</g>
</g>
</svg>
